<svg width="1146" height="144" viewBox="0 0 1146 144" fill="none" xmlns="http://www.w3.org/2000/svg">
<path d="M69.0429 95.1305H96.9477C96.5642 105.615 94.4545 114.47 90.6188 121.694C86.7831 128.855 81.3172 134.289 74.2211 137.997C67.189 141.705 58.6865 143.559 48.7136 143.559C40.9782 143.559 34.1059 142.28 28.0966 139.723C22.0873 137.102 16.973 133.266 12.7538 128.215C8.53447 123.165 5.33804 116.931 3.16447 109.515C1.05482 102.035 0 93.4363 0 83.7187V60.032C0 50.3143 1.11875 41.7155 3.35625 34.2355C5.65768 26.7555 8.91804 20.4901 13.1373 15.4395C17.4205 10.325 22.5668 6.48908 28.5761 3.93181C34.6493 1.3106 41.4897 0 49.0972 0C59.2618 0 67.7643 1.91795 74.6047 5.75386C81.4451 9.58977 86.7192 15.1838 90.427 22.536C94.1988 29.8242 96.4683 38.7427 97.2354 49.2914H69.2347C69.0429 42.6425 68.2758 37.4321 66.9333 33.6601C65.6547 29.8242 63.609 27.139 60.7961 25.6047C57.9832 24.0064 54.0836 23.2072 49.0972 23.2072C45.3893 23.2072 42.1929 23.8785 39.5079 25.2211C36.8229 26.4997 34.6173 28.5775 32.8913 31.4544C31.1652 34.3314 29.8866 38.1033 29.0556 42.7704C28.2884 47.4374 27.9048 53.1273 27.9048 59.8402V83.7187C27.9048 90.3037 28.2564 95.9296 28.9597 100.597C29.6629 105.2 30.7816 108.972 32.3159 111.913C33.8502 114.853 35.9279 116.995 38.549 118.338C41.234 119.68 44.6222 120.352 48.7136 120.352C53.4443 120.352 57.2481 119.648 60.1249 118.242C63.0656 116.835 65.2392 114.31 66.6456 110.666C68.052 107.022 68.8511 101.843 69.0429 95.1305Z" fill="white"/>
<path d="M165.032 26.9473L135.017 141.641H105.386L149.018 2.01385H167.525L165.032 26.9473ZM188.717 141.641L158.511 26.9473L155.73 2.01385H174.525L218.54 141.641H188.717ZM189.772 89.5684V112.872H126.77V89.5684H189.772Z" fill="white"/>
<path d="M279.432 92.4454H250.856V69.1422H279.432C283.396 69.1422 286.624 68.2472 289.117 66.4571C291.674 64.667 293.528 62.2056 294.679 59.073C295.83 55.8764 296.405 52.2962 296.405 48.3324C296.405 44.3047 295.798 40.5647 294.583 37.1124C293.432 33.5962 291.61 30.7512 289.117 28.5775C286.688 26.4038 283.459 25.317 279.432 25.317H259.87V141.641H231.869V2.01385H279.432C288.829 2.01385 296.916 3.99574 303.693 7.95951C310.469 11.9233 315.648 17.3894 319.228 24.358C322.871 31.2626 324.693 39.1902 324.693 48.1406C324.693 57.155 322.871 64.9867 319.228 71.6356C315.648 78.2205 310.469 83.3351 303.693 86.9792C296.916 90.6233 288.829 92.4454 279.432 92.4454Z" fill="white"/>
<path d="M399.106 2.01385V141.641H371.201V2.01385H399.106ZM433.82 2.01385V25.317H337.159V2.01385H433.82Z" fill="white"/>
<path d="M512.835 2.01385H540.836V97.9115C540.836 108.652 538.854 117.411 534.891 124.188C530.991 130.9 525.589 135.823 518.685 138.956C511.78 142.024 503.885 143.559 494.999 143.559C486.049 143.559 478.09 142.024 471.122 138.956C464.154 135.823 458.72 130.9 454.82 124.188C450.984 117.411 449.067 108.652 449.067 97.9115V2.01385H477.067V97.9115C477.067 103.985 477.738 108.652 479.081 111.913C480.487 115.173 482.501 117.411 485.122 118.625C487.807 119.776 491.1 120.352 494.999 120.352C498.963 120.352 502.223 119.776 504.78 118.625C507.401 117.411 509.383 115.173 510.726 111.913C512.132 108.652 512.835 103.985 512.835 97.9115V2.01385Z" fill="white"/>
<path d="M562.412 2.01385H607.194C616.528 2.01385 624.487 3.61215 631.071 6.80874C637.656 10.0053 642.706 14.7363 646.222 21.0016C649.738 27.2669 651.496 35.0027 651.496 44.2088C651.496 51.7528 650.474 58.2099 648.428 63.5802C646.382 68.8865 643.473 73.3298 639.702 76.9099C635.93 80.4262 631.423 83.2392 626.181 85.3489L617.646 90.4315H581.303L581.207 67.1284H606.427C610.263 67.1284 613.427 66.2973 615.92 64.635C618.477 62.9089 620.363 60.5114 621.578 57.4427C622.856 54.3101 623.496 50.6659 623.496 46.5104C623.496 42.0991 622.92 38.3271 621.77 35.1945C620.683 31.9979 618.925 29.5685 616.496 27.9062C614.13 26.1801 611.03 25.317 607.194 25.317H590.509V141.641H562.412V2.01385ZM625.797 141.641L600.194 79.4033L629.633 79.3074L655.812 140.298V141.641H625.797Z" fill="white"/>
<path d="M751.129 118.434V141.641H690.429V118.434H751.129ZM699.155 2.01385V141.641H671.059V2.01385H699.155ZM742.978 58.5935V81.1294H690.429V58.5935H742.978ZM750.937 2.01385V25.317H690.429V2.01385H750.937Z" fill="white"/>
<path d="M841.94 2.01385V141.641H814.035V2.01385H841.94Z" fill="white"/>
<path d="M918.654 2.01385V141.641H890.749V2.01385H918.654ZM953.367 2.01385V25.317H856.707V2.01385H953.367Z" fill="white"/>
<path d="M1042.37 110.12V115.864H1093.93V110.12H1042.37Z" fill="#821923" fill-opacity="0.44"/>
<path d="M1042.37 118.557V124.302H1093.93V118.557H1042.37Z" fill="#821923" fill-opacity="0.44"/>
<path d="M1042.37 93.2449V98.9893H1093.93V93.2449H1042.37Z" fill="#821923" fill-opacity="0.44"/>
<path d="M1042.37 101.683V107.427H1093.93V101.683H1042.37Z" fill="#821923" fill-opacity="0.44"/>
<path d="M1138.36 51.0575V98.9893H1145.41V51.0575H1138.36Z" fill="#821923"/>
<path d="M1042.37 84.8075V90.5522H1093.93V84.8075H1042.37Z" fill="#821923" fill-opacity="0.44"/>
<path d="M1096.63 25.7449V124.302H1112.02V25.7449H1096.63Z" fill="#821923" fill-opacity="0.66"/>
<path d="M1131.41 44.0263V106.021H1135.67V44.0263H1131.41Z" fill="#821923" fill-opacity="0.88"/>
<path d="M1128.71 118.676V107.367V42.6799V31.3705H1123.06V118.676H1128.71Z" fill="#821923" fill-opacity="0.88"/>
<path d="M1120.37 119.307V30.7405L1114.71 26.9298V123.117L1120.37 119.307Z" fill="#821923" fill-opacity="0.66"/>
<path d="M1034.02 25.7449V124.302H1039.68V25.7449H1034.02Z" fill="white"/>
<path d="M1042.37 25.7453V31.49L1093.93 31.49V25.7453L1042.37 25.7453Z" fill="#821923" fill-opacity="0.44"/>
<path d="M1042.37 34.1828V39.9272H1093.93V34.1828H1042.37Z" fill="#821923" fill-opacity="0.44"/>
<path d="M999.018 27.8766C999.226 28.1917 999.292 28.5791 999.201 28.944C999.11 29.3099 998.869 29.6206 998.538 29.8007L981.155 39.2615V110.785L998.538 120.247C998.869 120.427 999.11 120.737 999.201 121.103C999.292 121.468 999.226 121.856 999.019 122.171L989.266 136.958H1017.42V13.0892H989.266L999.018 27.8766Z" fill="white"/>
<path d="M1031.33 125.053V24.994L1020.11 14.7876V135.259L1031.33 125.053Z" fill="white"/>
<path d="M1042.37 59.4952V65.24H1093.93V59.4952H1042.37Z" fill="#821923" fill-opacity="0.44"/>
<path d="M1042.37 67.9326V73.677H1093.93V67.9326H1042.37Z" fill="#821923" fill-opacity="0.44"/>
<path d="M1042.37 76.3699V82.1143H1093.93V76.3699H1042.37Z" fill="#821923" fill-opacity="0.44"/>
<path d="M1042.37 51.0576V56.802H1093.93V51.0576H1042.37Z" fill="#821923" fill-opacity="0.44"/>
<path d="M1042.37 42.6203V48.3647H1093.93V42.6203H1042.37Z" fill="#821923" fill-opacity="0.44"/>
</svg>
