<svg width="1146" height="144" viewBox="0 0 1146 144" fill="none" xmlns="http://www.w3.org/2000/svg">
<path d="M69.0786 95.175H96.9979C96.6141 105.665 94.5034 114.523 90.6657 121.751C86.828 128.915 81.3592 134.351 74.2595 138.061C67.2237 141.771 58.7168 143.626 48.7388 143.626C40.9994 143.626 34.1235 142.347 28.1112 139.788C22.0988 137.166 16.9818 133.328 12.7604 128.275C8.53888 123.222 5.3408 116.986 3.1661 109.566C1.05537 102.083 0 93.48 0 83.7578V60.06C0 50.3378 1.11933 41.735 3.35799 34.2515C5.66061 26.768 8.92265 20.4997 13.1441 15.4467C17.4296 10.3298 22.5785 6.49211 28.5909 3.93364C34.6672 1.31121 41.5111 0 49.1226 0C59.2925 0 67.7994 1.91885 74.6433 5.75655C81.4872 9.59425 86.764 15.1909 90.4738 22.5465C94.2475 29.8381 96.5181 38.7608 97.2857 49.3144H69.2705C69.0786 42.6624 68.3111 37.4496 66.9679 33.6758C65.6886 29.8381 63.6419 27.1517 60.8275 25.6166C58.0132 24.0176 54.1116 23.2181 49.1226 23.2181C45.4128 23.2181 42.2147 23.8897 39.5283 25.2329C36.8419 26.5121 34.6352 28.5909 32.9083 31.4691C31.1813 34.3474 29.9021 38.1212 29.0706 42.7904C28.303 47.4596 27.9193 53.1521 27.9193 59.8681V83.7578C27.9193 90.3458 28.2711 95.9745 28.9746 100.644C29.6782 105.249 30.7975 109.023 32.3326 111.965C33.8677 114.907 35.9465 117.05 38.5689 118.393C41.2553 119.736 44.6452 120.408 48.7388 120.408C53.4719 120.408 57.2777 119.704 60.1559 118.297C63.0982 116.89 65.2729 114.363 66.68 110.718C68.0872 107.072 68.8867 101.891 69.0786 95.175Z" fill="black"/>
<path d="M165.117 26.9598L135.087 141.707H105.441L149.095 2.01479H167.612L165.117 26.9598ZM188.815 141.707L158.593 26.9598L155.811 2.01479H174.615L218.653 141.707H188.815ZM189.87 89.6103V112.924H126.836V89.6103H189.87Z" fill="black"/>
<path d="M279.576 92.4886H250.986V69.1745H279.576C283.542 69.1745 286.772 68.2791 289.267 66.4881C291.825 64.6972 293.68 62.2347 294.831 59.1006C295.983 55.9025 296.558 52.3206 296.558 48.355C296.558 44.3254 295.951 40.5837 294.735 37.1297C293.584 33.6119 291.761 30.7656 289.267 28.5909C286.836 26.4162 283.606 25.3288 279.576 25.3288H260.004V141.707H231.989V2.01479H279.576C288.979 2.01479 297.07 3.9976 303.85 7.96323C310.63 11.9288 315.811 17.3976 319.393 24.3694C323.038 31.2773 324.861 39.2085 324.861 48.1631C324.861 57.1817 323.038 65.017 319.393 71.669C315.811 78.2571 310.63 83.374 303.85 87.0198C297.07 90.6657 288.979 92.4886 279.576 92.4886Z" fill="black"/>
<path d="M399.313 2.01479V141.707H371.393V2.01479H399.313ZM434.044 2.01479V25.3288H337.334V2.01479H434.044Z" fill="black"/>
<path d="M513.1 2.01479H541.116V97.9573C541.116 108.703 539.133 117.466 535.167 124.246C531.266 130.962 525.861 135.887 518.953 139.021C512.045 142.091 504.146 143.626 495.255 143.626C486.301 143.626 478.337 142.091 471.365 139.021C464.394 135.887 458.957 130.962 455.055 124.246C451.218 117.466 449.299 108.703 449.299 97.9573V2.01479H477.314V97.9573C477.314 104.034 477.986 108.703 479.329 111.965C480.736 115.227 482.751 117.466 485.373 118.681C488.059 119.832 491.353 120.408 495.255 120.408C499.221 120.408 502.483 119.832 505.041 118.681C507.664 117.466 509.647 115.227 510.99 111.965C512.397 108.703 513.1 104.034 513.1 97.9573V2.01479Z" fill="black"/>
<path d="M562.703 2.01479H607.508C616.846 2.01479 624.809 3.61383 631.398 6.81192C637.986 10.01 643.039 14.7432 646.556 21.0114C650.074 27.2796 651.833 35.019 651.833 44.2295C651.833 51.777 650.81 58.2371 648.763 63.6099C646.716 68.9187 643.806 73.364 640.032 76.9459C636.259 80.4638 631.749 83.2781 626.504 85.3888L617.966 90.4738H581.603L581.507 67.1597H606.74C610.578 67.1597 613.744 66.3282 616.239 64.6652C618.797 62.9383 620.684 60.5397 621.899 57.4696C623.178 54.3354 623.818 50.6896 623.818 46.5321C623.818 42.1188 623.242 38.345 622.091 35.2109C621.004 32.0128 619.245 29.5823 616.814 27.9193C614.448 26.1923 611.346 25.3288 607.508 25.3288H590.814V141.707H562.703V2.01479ZM626.121 141.707L600.504 79.4404L629.958 79.3444L656.151 140.364V141.707H626.121Z" fill="black"/>
<path d="M751.518 118.489V141.707H690.786V118.489H751.518ZM699.517 2.01479V141.707H671.406V2.01479H699.517ZM743.362 58.6209V81.1673H690.786V58.6209H743.362ZM751.326 2.01479V25.3288H690.786V2.01479H751.326Z" fill="black"/>
<path d="M842.375 2.01479V141.707H814.456V2.01479H842.375Z" fill="black"/>
<path d="M919.129 2.01479V141.707H891.21V2.01479H919.129ZM953.86 2.01479V25.3288H857.15V2.01479H953.86Z" fill="black"/>
<path d="M1042.91 110.171V115.918H1094.5V110.171H1042.91Z" fill="#821923" fill-opacity="0.44"/>
<path d="M1042.91 118.612V124.36H1094.5V118.612H1042.91Z" fill="#821923" fill-opacity="0.44"/>
<path d="M1042.91 93.2886V99.0356H1094.5V93.2886H1042.91Z" fill="#821923" fill-opacity="0.44"/>
<path d="M1042.91 101.73V107.477H1094.5V101.73H1042.91Z" fill="#821923" fill-opacity="0.44"/>
<path d="M1138.95 51.0815V99.0356H1146V51.0815H1138.95Z" fill="#821923"/>
<path d="M1042.91 84.8471V90.5945H1094.5V84.8471H1042.91Z" fill="#821923" fill-opacity="0.44"/>
<path d="M1097.19 25.7572V124.36H1112.59V25.7572H1097.19Z" fill="#821923" fill-opacity="0.66"/>
<path d="M1131.99 44.0469V106.07H1136.26V44.0469H1131.99Z" fill="#821923" fill-opacity="0.88"/>
<path d="M1129.3 118.732V107.417V42.7V31.3853H1123.64V118.732H1129.3Z" fill="#821923" fill-opacity="0.88"/>
<path d="M1120.95 119.362V30.7549L1115.29 26.9425V123.175L1120.95 119.362Z" fill="#821923" fill-opacity="0.66"/>
<path d="M1034.56 25.7572V124.36H1040.21V25.7572H1034.56Z" fill="black"/>
<path d="M1042.91 25.7575V31.5049L1094.5 31.5049V25.7575L1042.91 25.7575Z" fill="#821923" fill-opacity="0.44"/>
<path d="M1042.91 34.1987V39.9458H1094.5V34.1987H1042.91Z" fill="#821923" fill-opacity="0.44"/>
<path d="M999.535 27.8896C999.742 28.2049 999.809 28.5925 999.717 28.9575C999.626 29.3236 999.386 29.6344 999.054 29.8146L981.663 39.2798V110.837L999.055 120.303C999.386 120.483 999.627 120.794 999.718 121.16C999.808 121.525 999.743 121.913 999.535 122.228L989.777 137.022H1017.94V13.0952H989.777L999.535 27.8896Z" fill="black"/>
<path d="M1031.86 125.111V25.0057L1020.64 14.7946V135.323L1031.86 125.111Z" fill="black"/>
<path d="M1042.91 59.5228V65.2703H1094.5V59.5228H1042.91Z" fill="#821923" fill-opacity="0.44"/>
<path d="M1042.91 67.9643V73.7114H1094.5V67.9643H1042.91Z" fill="#821923" fill-opacity="0.44"/>
<path d="M1042.91 76.4057V82.1528H1094.5V76.4057H1042.91Z" fill="#821923" fill-opacity="0.44"/>
<path d="M1042.91 51.0813V56.8284H1094.5V51.0813H1042.91Z" fill="#821923" fill-opacity="0.44"/>
<path d="M1042.91 42.6404V48.3875H1094.5V42.6404H1042.91Z" fill="#821923" fill-opacity="0.44"/>
</svg>
